<svg xmlns="http://www.w3.org/2000/svg" width="160.91" height="54.66" viewBox="0 0 160.91 54.66">
  <g id="logo-aula-campus-color" transform="translate(-2837.302 -1612.55)">
    <g id="Grupo_9" data-name="Grupo 9" transform="translate(2837.302 1614.781)">
      <path id="Trazado_5" data-name="Trazado 5" d="M2877.8,1659.9l-8.816,5.234a23.739,23.739,0,0,1-4.5-5.05,15.734,15.734,0,0,1-11.753,5.418c-7.712,0-15.427-5.878-15.427-14.234,0-9.091,8.263-14.691,18.18-14.691h4.868c0-3.949-2.3-6.429-6.7-6.429a13.961,13.961,0,0,0-7.437,2.2l-3.765-8.356a19.331,19.331,0,0,1,11.2-3.49c11.386,0,17.172,7.254,17.172,16.53v8.906C2870.818,1652,2873.021,1656.227,2877.8,1659.9Zm-22.315-15.244c-6.518,0-7.528,4.133-7.528,6.612,0,2.938,2.755,4.5,5.142,4.5,4.316,0,7.806-4.041,7.806-4.041a51.717,51.717,0,0,1-.551-7.071Z" transform="translate(-2837.302 -1620.506)" fill="#00619c"/>
    </g>
    <g id="Grupo_10" data-name="Grupo 10" transform="translate(2888.445 1612.55)">
      <path id="Trazado_6" data-name="Trazado 6" d="M3030.356,1656.645l-.653-1.584a6.943,6.943,0,0,1-5,1.929,4.848,4.848,0,0,1-4.994-4.994c0-3.2,2.24-5.167,6.545-5.3l3.3-.1v-.758c0-2.788-1.445-3.717-3.514-3.717a6.66,6.66,0,0,0-4.267,1.515l-1.036-1.825a9.1,9.1,0,0,1,5.751-1.861c3.1,0,5.579,1.345,5.579,5.512v4.958c0,4.617.138,5.72.346,6.236Zm-.792-7.819-3.238.1c-2.927.1-4.1,1.1-4.1,2.893a2.867,2.867,0,0,0,3.167,3,5.528,5.528,0,0,0,4.168-1.86Z" transform="translate(-3019.714 -1632.261)" fill="#787060"/>
      <path id="Trazado_7" data-name="Trazado 7" d="M3090.18,1657.71l-.654-1.689a8.317,8.317,0,0,1-5.271,2.034c-2.2,0-4.958-1.139-4.958-5.717v-10.918h2.514v10.676c0,2.721,1.137,3.788,3.167,3.788a5.833,5.833,0,0,0,4.341-2.169v-12.3h2.514v9.472c0,5.13.1,6.129.345,6.819Z" transform="translate(-3062.592 -1633.325)" fill="#787060"/>
      <path id="Trazado_8" data-name="Trazado 8" d="M3144.07,1637.28c-2,0-2.857-1.276-2.857-3V1612.55h2.513v20.6c0,1.548.381,1.86,1.343,1.86a3.232,3.232,0,0,0,.863-.1l.31,1.824A4.41,4.41,0,0,1,3144.07,1637.28Z" transform="translate(-3107.148 -1612.55)" fill="#787060"/>
      <path id="Trazado_9" data-name="Trazado 9" d="M3176.539,1656.645l-.655-1.584a6.937,6.937,0,0,1-4.994,1.929,4.85,4.85,0,0,1-5-4.994c0-3.2,2.24-5.167,6.545-5.3l3.307-.1v-.758c0-2.788-1.445-3.717-3.512-3.717a6.682,6.682,0,0,0-4.272,1.515l-1.032-1.825a9.105,9.105,0,0,1,5.752-1.861c3.1,0,5.579,1.345,5.579,5.512v4.958c0,4.617.135,5.72.344,6.236Zm-.792-7.819-3.237.1c-2.929.1-4.1,1.1-4.1,2.893a2.87,2.87,0,0,0,3.172,3,5.523,5.523,0,0,0,4.166-1.86Z" transform="translate(-3124.909 -1632.261)" fill="#787060"/>
    </g>
    <g id="Grupo_11" data-name="Grupo 11" transform="translate(2888.445 1642.414)">
      <path id="Trazado_10" data-name="Trazado 10" d="M3027.739,1736.079c-5.3,0-8.024-3.823-8.024-8.4a8.281,8.281,0,0,1,8.436-8.61,8.677,8.677,0,0,1,4.651,1.137l-.069,3.375a6.442,6.442,0,0,0-4.1-1.344c-2.789,0-4.787,2.205-4.787,5.236,0,2.787,1.513,5.269,4.75,5.269a7.352,7.352,0,0,0,3.859-1.137l1.034,2.722A10.828,10.828,0,0,1,3027.739,1736.079Z" transform="translate(-3019.714 -1719.065)" fill="#141214"/>
      <path id="Trazado_11" data-name="Trazado 11" d="M3085.123,1735.735l-.692-1.447a6.744,6.744,0,0,1-4.716,1.791,5.073,5.073,0,0,1-5.341-5.235c0-3.375,2.656-5.2,6.821-5.338l2.892-.105v-.413c0-1.964-1.376-2.755-3.1-2.755a8,8,0,0,0-4.2,1.206l-1.343-2.583a10.725,10.725,0,0,1,6.372-1.791c4.031,0,6.475,1.654,6.475,5.923v6.441a16.329,16.329,0,0,0,.31,4.306Zm-1.036-7.474-2.34.069c-2.24.068-3.238.827-3.238,2.2,0,1.344.929,2.272,2.652,2.272a4.3,4.3,0,0,0,2.926-1.031Z" transform="translate(-3059.049 -1719.065)" fill="#141214"/>
      <path id="Trazado_12" data-name="Trazado 12" d="M3158.566,1735.735v-9.885c0-1.827-.344-3.272-2.375-3.272a6.538,6.538,0,0,0-3.929,1.653,2.74,2.74,0,0,1,.037.585v10.919h-4.135v-9.818c0-1.825-.344-3.339-2.341-3.339a6.519,6.519,0,0,0-3.927,1.653v11.5h-4.133v-16.29h3.48l.412,1.791a9.169,9.169,0,0,1,5.545-2.171,4.5,4.5,0,0,1,4.273,2.445,9.365,9.365,0,0,1,5.818-2.445c2.789,0,5.375,1.343,5.375,5.614v11.056Z" transform="translate(-3104.666 -1719.065)" fill="#141214"/>
      <path id="Trazado_13" data-name="Trazado 13" d="M3246.445,1736.079a7.409,7.409,0,0,1-2.341-.378v8.16h-4.133v-23.694a18.607,18.607,0,0,1,6.341-1.1c5.784,0,8.779,3.2,8.779,8.267A8.4,8.4,0,0,1,3246.445,1736.079Zm-.447-13.6a7.206,7.206,0,0,0-1.894.241v9.677a5.906,5.906,0,0,0,2.137.412c2.892,0,4.544-2.1,4.544-5.27C3250.785,1724.092,3248.685,1722.476,3246,1722.476Z" transform="translate(-3178.217 -1719.065)" fill="#141214"/>
      <path id="Trazado_14" data-name="Trazado 14" d="M3316.188,1736.71l-.724-1.62a7.361,7.361,0,0,1-4.994,1.964c-2.134,0-5.509-1.1-5.509-6.338v-10.3h4.132v10.056c0,2.033.928,3.306,2.928,3.306a4.814,4.814,0,0,0,3.135-1.342v-12.02h4.131V1732.2a16.169,16.169,0,0,0,.311,4.512Z" transform="translate(-3224.986 -1720.04)" fill="#141214"/>
      <path id="Trazado_15" data-name="Trazado 15" d="M3372.047,1736.079a11.283,11.283,0,0,1-6.026-1.515l1.342-3.03a7.912,7.912,0,0,0,4.373,1.445c1.687,0,2.791-.62,2.791-1.723,0-2.926-7.511-1.825-7.511-7.368,0-2.825,2.24-4.823,6.167-4.823a12.274,12.274,0,0,1,4.787.829v3.441a12.473,12.473,0,0,0-4.614-1.067c-1.447,0-2.31.449-2.31,1.412,0,2.583,7.647,1.721,7.647,7.336C3378.694,1734.667,3375.49,1736.079,3372.047,1736.079Z" transform="translate(-3268.927 -1719.065)" fill="#141214"/>
    </g>
  </g>
</svg>
